<svg xmlns="http://www.w3.org/2000/svg" viewBox="0 0 24 24" id="icon"><path d="M12 2c-.5 0-1 .2-1.4.5C9.8 3 9.2 3.2 8.5 3.2 6.6 3.2 5 4.8 5 6.7c0 .7.2 1.4.6 2C4 10.5 3 13.2 3 15.5 3 19.6 7 22 12 22s9-2.4 9-6.5c0-2.3-1-5-2.6-6.8.4-.6.6-1.3.6-2 0-1.9-1.6-3.5-3.5-3.5-.7 0-1.3.2-1.9.5-.3-.3-.8-.5-1.3-.5l-.3.1zm0 2.5c.2.3.5.5.8.6.5.2 1 .3 1.7.3.8 0 1.5.7 1.5 1.5s-.7 1.5-1.5 1.5c-.7 0-1.2-.2-1.7-.3-.3-.1-.6-.3-.8-.6-.2.3-.5.5-.8.6-.5.2-1 .3-1.7.3-.8 0-1.5-.7-1.5-1.5S8.2 5.1 9 5.1c.7 0 1.2.2 1.7.3.3.1.6.3.8.6z"/></svg>
