<svg xmlns="http://www.w3.org/2000/svg" viewBox="0 0 24 24" id="icon"><path d="M12 2c-1 0-1.8.4-2.4 1-.8-.6-1.8-1-2.9-1C4.1 2 2 4.5 2 7.5c0 2 .8 3.7 2 5C5.3 14.8 8 20 12 22c4-2 6.7-7.2 8-9.5 1.2-1.3 2-3 2-5C22 4.5 19.9 2 17.3 2c-1.1 0-2.1.4-2.9 1-.6-.6-1.4-1-2.4-1zm0 3c.5 0 .9.2 1.2.5l1.3 1.3c.5-.5 1.2-.8 2-.8 1.7 0 3 1.3 3 3.5 0 1.2-.5 2.3-1.3 3.2l-.2.3C16.5 15 14.5 18.5 12 20.5 9.5 18.5 7.5 15 6 13l-.2-.3C5 11.8 4.5 10.7 4.5 9.5 4.5 7.3 5.8 6 7.5 6c.8 0 1.5.3 2 .8l1.3-1.3c.3-.3.7-.5 1.2-.5z"/></svg>
